<svg id="Calque_1" data-name="Calque 1" xmlns="http://www.w3.org/2000/svg" viewBox="0 0 277.15 232.43"><defs><style>.cls-1{fill:#ccc;}.cls-1,.cls-2,.cls-4{stroke:#1d1d1b;stroke-miterlimit:10;}.cls-1,.cls-2{stroke-width:0.25px;}.cls-2{fill:#fff;}.cls-3{fill:#1d1d1b;}.cls-4{fill:#d4d4d4;stroke-width:0.1px;}</style></defs><path class="cls-1" d="M82.29,223h251a0,0,0,0,1,0,0v11.87a2,2,0,0,1-2,2h-247a2,2,0,0,1-2-2V223a0,0,0,0,1,0,0Z" transform="translate(-89.82 12.17) rotate(-9.29)"/><rect class="cls-1" x="56.99" y="75.24" width="251.01" height="5.85" transform="translate(-69.23 23.97) rotate(-14.55)"/><path class="cls-2" d="M71.15,88.52h251a0,0,0,0,1,0,0V232.9a2,2,0,0,1-2,2H73.1a1.95,1.95,0,0,1-1.95-1.95V88.52a0,0,0,0,1,0,0Z" transform="translate(-78.96 9.48) rotate(-9.29)"/><path class="cls-2" d="M56,55.22H303.06a2,2,0,0,1,2,2V78.32a0,0,0,0,1,0,0H54a0,0,0,0,1,0,0V57.14A1.92,1.92,0,0,1,56,55.22Z" transform="translate(-66.46 22.86) rotate(-14.55)"/><polygon class="cls-3" points="87.96 95.53 49.66 101.55 74.17 74.14 112.73 67.83 87.96 95.53"/><polygon class="cls-3" points="157.43 84.17 119.13 90.19 143.64 62.78 182.19 56.48 157.43 84.17"/><polygon class="cls-3" points="228.78 72.51 190.48 78.53 214.99 51.11 253.25 44.86 228.78 72.51"/><polygon class="cls-3" points="9.24 108.01 7.35 96.43 5.54 85.36 33.37 80.59 9.24 108.01"/><rect class="cls-2" x="86.08" y="111.31" width="223.54" height="115.46" transform="translate(-80.13 9.77) rotate(-9.29)"/><polygon class="cls-3" points="76.85 42.72 39.03 52.53 72.56 67.7 110.34 57.87 76.85 42.72"/><polygon class="cls-3" points="144.99 25.04 107.17 34.85 140.7 50.02 178.48 40.18 144.99 25.04"/><polygon class="cls-3" points="214.97 6.88 177.15 16.69 210.68 31.86 248.46 22.02 214.97 6.88"/><polygon class="cls-3" points="0.19 64.03 0.19 64.6 5.51 85.1 32.77 77.84 0.19 64.03"/><path class="cls-3" d="M143,193.2l-8.87-54.26,27.42-4.48,1.19,7.26-19.5,3.19,2.66,16.28,19.5-3.19,1.19,7.26L147,168.44l3.84,23.47Z" transform="translate(-55.45 -24.37)"/><path class="cls-3" d="M178.3,187.42l-8.87-54.25,27.42-4.49,1.19,7.26-19.51,3.19,2.66,16.28,19.51-3.19,1.18,7.26-19.5,3.19,3.84,23.46Z" transform="translate(-55.45 -24.37)"/><path class="cls-3" d="M213.64,181.65l-8.87-54.26,18.84-3.08c16.42-2.69,28.59,8.65,30.9,22.8,2.71,16.57-6,28.84-23.21,31.65Zm16.19-10.1c12.53-2.05,18.81-10.61,16.78-23-2-12.17-11.84-18.61-22.92-16.8l-9.82,1.6,6.5,39.74Z" transform="translate(-55.45 -24.37)"/><path class="cls-4" d="M333.26,219.43" transform="translate(-55.45 -24.37)"/><rect class="cls-3" x="161.14" y="188.04" width="77.35" height="5.58" transform="translate(-83.62 10.37) rotate(-9.29)"/><rect class="cls-3" x="180.29" y="199.25" width="42" height="5.58" transform="translate(-85.41 10.75) rotate(-9.29)"/></svg>